<?xml version="1.0" encoding="UTF-8" standalone="no"?>
<svg
   xmlns:dc="http://purl.org/dc/elements/1.1/"
   xmlns:cc="http://creativecommons.org/ns#"
   xmlns:rdf="http://www.w3.org/1999/02/22-rdf-syntax-ns#"
   xmlns:svg="http://www.w3.org/2000/svg"
   xmlns="http://www.w3.org/2000/svg"
   viewBox="0 0 933.33331 933.33331"
   height="933.33331"
   width="933.33331"
   xml:space="preserve"
   id="svg2"
   version="1.1"><metadata
     id="metadata8"><rdf:RDF><cc:Work
         rdf:about=""><dc:format>image/svg+xml</dc:format><dc:type
           rdf:resource="http://purl.org/dc/dcmitype/StillImage" /></cc:Work></rdf:RDF></metadata><defs
     id="defs6"><clipPath
       id="clipPath18"
       clipPathUnits="userSpaceOnUse"><path
         id="path16"
         d="M 0,700 H 700 V 0 H 0 Z" /></clipPath></defs><g
     transform="matrix(1.3333333,0,0,-1.3333333,0,933.33333)"
     id="g10"><g
       id="g12"><g
         clip-path="url(#clipPath18)"
         id="g14"><g
           transform="translate(142.9609,283.8652)"
           id="g20"><path
             id="path22"
             style="fill:#1b75bb;fill-opacity:1;fill-rule:nonzero;stroke:none"
             d="m 0,0 c 8.682,16.231 30.519,20.592 47.371,18.048 22.932,-3.461 41.726,-19.192 58.479,-34.087 3.061,-2.722 9.194,-2.108 10.028,2.647 18.885,107.67 101.847,190.309 195.744,239.07 27.991,14.536 57.259,26.396 87.284,36.015 -1.062,3.858 -2.126,7.715 -3.189,11.572 C 345.061,255.864 303.511,221.399 267.798,182.353 249.135,161.948 231.395,140.614 213.901,119.204 196.233,97.58 179.839,75.147 166.355,50.647 151.432,23.531 139.507,-5.086 127.826,-33.707 c -2.916,-7.146 8.688,-10.256 11.571,-3.189 10.14,24.843 20.52,49.629 32.986,73.416 12.612,24.06 27.685,46.41 44.66,67.598 16.769,20.931 34.09,41.542 51.897,61.598 17.472,19.677 35.963,38.566 56.613,54.937 22.042,17.474 46.706,31.887 73.353,41.04 7.241,2.488 4.223,13.947 -3.189,11.572 C 341.789,255.988 289.767,231.501 243.952,198.014 199.19,165.295 160.331,123.971 134.113,74.858 119.899,48.231 109.526,19.554 104.307,-10.201 c 3.343,0.883 6.686,1.764 10.028,2.647 C 94.836,9.783 73.107,27.187 46.26,30.207 25.407,32.554 0.173,25.752 -10.362,6.057 -14.003,-0.752 -3.648,-6.82 0,0" /></g><g
           transform="translate(160.1553,286.2754)"
           id="g24"><path
             id="path26"
             style="fill:#1b75bb;fill-opacity:1;fill-rule:nonzero;stroke:none"
             d="m 0,0 c 6.521,3.265 13.795,3.818 20.981,3.692 7.532,-0.13 14.752,-0.397 21.613,-3.774 13.76,-6.772 26.287,-15.299 38.306,-24.776 5.999,-4.732 14.548,3.704 8.485,8.485 C 75.301,-5.267 60.465,5.613 43.775,12.52 36.029,15.724 26.739,15.776 18.449,15.702 9.892,15.626 1.635,14.213 -6.057,10.361 -12.963,6.903 -6.893,-3.451 0,0" /></g><g
           transform="translate(358.6309,433.9961)"
           id="g28"><path
             id="path30"
             style="fill:#1b75bb;fill-opacity:1;fill-rule:nonzero;stroke:none"
             d="m 0,0 c -19.097,-18.58 -35.106,-39.965 -49.785,-62.131 -7.139,-10.781 -14.024,-21.735 -20.859,-32.711 -7.097,-11.396 -13.847,-23.134 -17.238,-36.229 -1.938,-7.482 9.633,-10.673 11.571,-3.191 3.213,12.408 9.768,23.338 16.501,34.119 6.693,10.716 13.413,21.42 20.387,31.955 14.131,21.348 29.519,41.811 47.908,59.703 C 14.03,-3.09 5.541,5.391 0,0" /></g><g
           transform="translate(268.5444,291.8398)"
           id="g32"><path
             id="path34"
             style="fill:#1b75bb;fill-opacity:1;fill-rule:nonzero;stroke:none"
             d="M 0,0 C 7.721,0 7.734,12 0,12 -7.722,12 -7.734,0 0,0" /></g><g
           transform="translate(151.6235,280.0869)"
           id="g36"><path
             id="path38"
             style="fill:#1b75bb;fill-opacity:1;fill-rule:nonzero;stroke:none"
             d="m 0,0 c 14.447,3.161 30.244,0.728 44.669,-1.664 12.812,-2.125 25.883,-5.229 37.276,-11.67 12.422,-7.023 19.922,-17.884 25.078,-30.989 5.907,-15.012 9.239,-30.966 10.92,-46.977 1.873,-17.844 1.991,-35.809 2.075,-53.732 0.037,-7.742 11.73,-7.707 12,0 0.58,16.521 -2.736,32.712 -4.128,49.105 -1.386,16.309 0.576,31.656 5.679,47.194 5.076,15.457 11.895,30.366 18.613,45.164 6.923,15.248 14.214,30.326 21.827,45.242 3.503,6.865 -6.847,12.944 -10.362,6.056 -7.905,-15.488 -15.465,-31.15 -22.622,-46.999 -6.847,-15.162 -13.832,-30.45 -19.027,-46.273 -5.185,-15.791 -7.508,-31.895 -6.261,-48.496 1.279,-17.037 4.884,-33.836 4.281,-50.993 h 12 c -0.163,34.57 -0.498,70.329 -13.094,103.043 -5.649,14.673 -13.371,27.506 -26.652,36.388 C 80.449,2.306 66.297,6.473 52.449,9.095 34.496,12.493 14.862,15.521 -3.19,11.571 -10.731,9.922 -7.54,-1.649 0,0" /></g><g
           transform="translate(299.5557,336.4453)"
           id="g40"><path
             id="path42"
             style="fill:#1b75bb;fill-opacity:1;fill-rule:nonzero;stroke:none"
             d="m 0,0 c -28.75,-55.648 -28.854,-119.012 -27.776,-180.119 3.727,1.009 7.454,2.018 11.181,3.028 -13.106,30.17 -26.627,60.472 -47.752,86.031 -18.698,22.624 -43.116,40.463 -71.325,49.093 -0.532,-3.929 -1.064,-7.857 -1.596,-11.785 28.94,-2.797 52.048,-23.766 66.5,-47.776 17.353,-28.831 24.634,-62.502 43.022,-90.838 3.21,-4.947 11.061,-3.07 11.181,3.028 1.27,64.579 19.676,128.099 51.747,184.078 17.074,29.802 38.008,56.793 61.215,82.05 22.98,25.008 46.921,49.427 71.569,72.798 26.426,25.057 55.007,47.859 88.086,63.518 6.975,3.303 0.892,13.652 -6.057,10.362 C 219.918,209.229 193.269,189.033 168.758,166.703 143.326,143.532 119.242,118.612 95.651,93.585 71.429,67.888 48.94,40.671 30.532,10.461 13.216,-17.956 -0.71,-48.52 -10.692,-80.268 c -11.09,-35.27 -17.146,-72.104 -17.873,-109.07 3.727,1.009 7.454,2.019 11.181,3.028 -19.409,29.91 -26.453,65.957 -46.083,95.693 -16.993,25.741 -42.359,45.826 -73.801,48.865 -6.944,0.671 -7.827,-9.879 -1.595,-11.786 26.818,-8.204 49.464,-25.594 67.008,-47.199 19.828,-24.418 32.468,-53.796 44.898,-82.41 2.446,-5.631 11.279,-2.56 11.181,3.028 -1.037,58.816 -1.565,120.441 26.137,174.062 C 13.901,0.795 3.549,6.871 0,0" /></g><g
           transform="translate(142.2686,279.9863)"
           id="g44"><path
             id="path46"
             style="fill:#1b75bb;fill-opacity:1;fill-rule:nonzero;stroke:none"
             d="M 0,0 C 7.721,0 7.734,12 0,12 -7.722,12 -7.734,0 0,0" /></g><g
           transform="translate(275.8965,134.8291)"
           id="g48"><path
             id="path50"
             style="fill:#1b75bb;fill-opacity:1;fill-rule:nonzero;stroke:none"
             d="M 0,0 C 7.722,0 7.734,12 0,12 -7.721,12 -7.734,0 0,0" /></g><g
           transform="translate(276.9712,131.1719)"
           id="g52"><path
             id="path54"
             style="fill:#1b75bb;fill-opacity:1;fill-rule:nonzero;stroke:none"
             d="M 0,0 C 7.721,0 7.734,12 0,12 -7.722,12 -7.734,0 0,0" /></g><g
           transform="translate(275.2681,140.7187)"
           id="g56"><path
             id="path58"
             style="fill:#1b75bb;fill-opacity:1;fill-rule:nonzero;stroke:none"
             d="M 0,0 C 7.721,0 7.734,12 0,12 -7.722,12 -7.734,0 0,0" /></g><g
           transform="translate(245.0869,235)"
           id="g60"><path
             id="path62"
             style="fill:#1b75bb;fill-opacity:1;fill-rule:nonzero;stroke:none"
             d="M 0,0 C 7.722,0 7.734,12 0,12 -7.721,12 -7.734,0 0,0" /></g><g
           transform="translate(258.1304,208.9131)"
           id="g64"><path
             id="path66"
             style="fill:#1b75bb;fill-opacity:1;fill-rule:nonzero;stroke:none"
             d="M 0,0 C 7.722,0 7.734,12 0,12 -7.721,12 -7.734,0 0,0" /></g><g
           transform="translate(268.5654,219.6953)"
           id="g68"><path
             id="path70"
             style="fill:#1b75bb;fill-opacity:1;fill-rule:nonzero;stroke:none"
             d="M 0,0 C 15.692,0 30.726,13.799 30,30 29.272,46.255 16.818,60 0,60 -15.692,60 -30.726,46.202 -30,30 -29.272,13.746 -16.819,0 0,0" /></g><g
           transform="translate(184.0215,278.3193)"
           id="g72"><path
             id="path74"
             style="fill:#1b75bb;fill-opacity:1;fill-rule:nonzero;stroke:none"
             d="M 0,0 C 9.415,0 18.435,8.279 18,18 17.563,27.752 10.091,36 0,36 -9.416,36 -18.436,27.721 -18,18 -17.563,8.247 -10.091,0 0,0" /></g><g
           transform="translate(176.6294,279.9121)"
           id="g76"><path
             id="path78"
             style="fill:#1b75bb;fill-opacity:1;fill-rule:nonzero;stroke:none"
             d="M 0,0 C 0.234,-0.159 0.468,-0.319 0.703,-0.479 2.769,-1.794 5,-2.506 7.395,-2.614 c 2.393,-0.536 4.785,-0.429 7.178,0.321 2.342,0.557 4.383,1.631 6.121,3.222 1.96,1.269 3.505,2.953 4.636,5.05 0.605,1.433 1.21,2.867 1.815,4.3 0.857,3.19 0.857,6.38 0,9.571 -0.605,1.432 -1.21,2.866 -1.815,4.299 -1.6,2.705 -3.753,4.858 -6.457,6.457 -0.235,0.16 -0.469,0.32 -0.703,0.479 -2.066,1.315 -4.297,2.027 -6.692,2.136 -2.393,0.536 -4.786,0.428 -7.178,-0.322 -2.343,-0.556 -4.383,-1.63 -6.122,-3.221 -1.959,-1.27 -3.505,-2.953 -4.636,-5.051 -0.604,-1.433 -1.209,-2.866 -1.814,-4.3 -0.857,-3.189 -0.857,-6.38 0,-9.57 0.605,-1.433 1.21,-2.866 1.814,-4.3 C -4.857,3.753 -2.705,1.601 0,0" /></g><g
           transform="translate(186.4893,276.8721)"
           id="g80"><path
             id="path82"
             style="fill:#1b75bb;fill-opacity:1;fill-rule:nonzero;stroke:none"
             d="M 0,0 C 9.416,0 18.436,8.279 18,18 17.563,27.753 10.091,36 0,36 -9.416,36 -18.435,27.721 -18,18 -17.563,8.248 -10.091,0 0,0" /></g><g
           transform="translate(152.2295,289.7744)"
           id="g84"><path
             id="path86"
             style="fill:#1b75bb;fill-opacity:1;fill-rule:nonzero;stroke:none"
             d="M 0,0 C 1.064,0.668 2.46,1.289 3.079,2.438 4.075,4.287 3.206,6.567 1.132,7.134 -0.256,7.512 -1.814,6.727 -3.059,6.187 -4.187,5.697 -5.247,5.104 -6.254,4.398 -7.578,3.469 -8.196,1.774 -7.33,0.294 c 0.767,-1.311 2.772,-2.012 4.104,-1.076 1.354,0.949 2.788,1.824 4.358,2.13 h -1.595 c 0.046,-0.013 0.093,-0.026 0.14,-0.038 -0.699,0.699 -1.397,1.397 -2.095,2.095 0.02,-0.052 0.04,-0.106 0.061,-0.159 0.101,0.771 0.201,1.541 0.302,2.312 0.597,0.548 0.72,0.703 0.367,0.463 C -1.837,5.928 -1.986,5.834 -2.135,5.741 -2.433,5.554 -2.73,5.367 -3.028,5.181 -4.399,4.32 -4.94,2.506 -4.104,1.076 -3.304,-0.292 -1.378,-0.865 0,0" /></g><g
           transform="translate(138.6597,280.4678)"
           id="g88"><path
             id="path90"
             style="fill:#1b75bb;fill-opacity:1;fill-rule:nonzero;stroke:none"
             d="M 0,0 C 3.861,0 3.867,6 0,6 -3.861,6 -3.867,0 0,0" /></g><g
           transform="translate(137.291,280.8428)"
           id="g92"><path
             id="path94"
             style="fill:#1b75bb;fill-opacity:1;fill-rule:nonzero;stroke:none"
             d="m 0,0 c 4.719,-1.19 9.412,-1.863 14.233,-0.87 3.779,0.778 2.18,6.563 -1.595,5.785 C 8.908,4.147 5.225,4.87 1.595,5.785 -2.15,6.729 -3.748,0.944 0,0" /></g><g
           transform="translate(165.9785,284.6387)"
           id="g96"><path
             id="path98"
             style="fill:#1b75bb;fill-opacity:1;fill-rule:nonzero;stroke:none"
             d="M 0,0 C 3.861,0 3.867,6 0,6 -3.86,6 -3.867,0 0,0" /></g><g
           transform="translate(165.8872,286.0273)"
           id="g100"><path
             id="path102"
             style="fill:#1b75bb;fill-opacity:1;fill-rule:nonzero;stroke:none"
             d="M 0,0 0.085,0.085 C 0.378,0.357 0.584,0.679 0.706,1.051 0.894,1.408 0.979,1.794 0.964,2.207 0.979,2.62 0.894,3.005 0.706,3.362 0.584,3.734 0.378,4.057 0.085,4.328 -0.117,4.484 -0.32,4.641 -0.522,4.797 -0.99,5.068 -1.495,5.205 -2.036,5.207 -2.302,5.171 -2.568,5.136 -2.833,5.1 -3.342,4.957 -3.783,4.7 -4.157,4.328 -4.186,4.3 -4.214,4.271 -4.243,4.243 -4.535,3.971 -4.742,3.649 -4.863,3.277 -5.051,2.92 -5.137,2.534 -5.121,2.122 -5.137,1.709 -5.051,1.323 -4.863,0.966 -4.742,0.594 -4.535,0.272 -4.243,0 c 0.203,-0.156 0.405,-0.312 0.608,-0.469 0.468,-0.271 0.972,-0.408 1.514,-0.409 0.266,0.035 0.532,0.071 0.797,0.107 0.509,0.142 0.95,0.4 1.324,0.771" /></g><g
           transform="translate(271.3828,147.4473)"
           id="g104"><path
             id="path106"
             style="fill:#1b75bb;fill-opacity:1;fill-rule:nonzero;stroke:none"
             d="M 0,0 C 3.861,0 3.867,6 0,6 -3.86,6 -3.867,0 0,0" /></g><g
           transform="translate(268.4761,149.1992)"
           id="g108"><path
             id="path110"
             style="fill:#1b75bb;fill-opacity:1;fill-rule:nonzero;stroke:none"
             d="m 0,0 c 0.947,-4.696 1.939,-9.384 2.976,-14.062 0.835,-3.768 6.621,-2.173 5.786,1.595 C 7.725,-7.789 6.733,-3.102 5.786,1.596 5.023,5.378 -0.762,3.776 0,0" /></g><g
           transform="translate(256.3179,226.2012)"
           id="g112"><path
             id="path114"
             style="fill:#1b75bb;fill-opacity:1;fill-rule:nonzero;stroke:none"
             d="m 0,0 c 1.804,-6.017 3.608,-12.033 5.412,-18.05 0.736,-2.456 1.411,-4.947 2.31,-7.35 1.119,-2.993 3.445,-6.232 2.972,-9.543 1.231,0.698 2.461,1.397 3.691,2.095 -1.339,0.195 -3.447,6.896 -3.985,8.158 -1.475,3.461 -2.861,6.962 -4.319,10.432 C 3.534,-8.197 0.774,-2.283 -2.756,3.275 -4.82,6.522 -9.87,3.616 -7.937,0.247 c 3.183,-5.55 6.366,-11.099 9.548,-16.648 1.921,-3.349 7.107,-0.33 5.181,3.028 C 3.609,-7.823 0.426,-2.274 -2.756,3.275 -4.483,2.266 -6.21,1.256 -7.937,0.247 c 4.653,-7.325 7.894,-15.275 11.193,-23.271 1.735,-4.205 4.133,-14.825 9.534,-15.61 1.439,-0.209 3.439,0.34 3.69,2.096 0.862,6.037 -2.473,10.859 -4.199,16.478 C 10.067,-12.856 7.95,-5.623 5.786,1.595 4.679,5.284 -1.113,3.713 0,0" /></g><g
           transform="translate(208.5381,274.625)"
           id="g116"><path
             id="path118"
             style="fill:#1b75bb;fill-opacity:1;fill-rule:nonzero;stroke:none"
             d="m 0,0 c 8.549,-7.3 19.912,-9.786 28.514,-16.917 1.212,1.571 2.423,3.142 3.635,4.712 -6.55,4.513 -13.455,8.192 -20.79,11.259 -3.558,1.487 -5.111,-4.317 -1.595,-5.786 6.833,-2.856 13.262,-6.455 19.357,-10.654 2.775,-1.912 6.267,2.531 3.635,4.712 C 24.126,-5.521 12.74,-3.013 4.243,4.243 1.321,6.737 -2.942,2.513 0,0" /></g><g
           transform="translate(214.9609,268.8213)"
           id="g120"><path
             id="path122"
             style="fill:#1b75bb;fill-opacity:1;fill-rule:nonzero;stroke:none"
             d="m 0,0 c 9.526,-5.988 18.357,-12.83 26.506,-20.59 l 2.121,5.121 c -1.004,0.023 -3.492,2.686 -4.389,3.339 -1.524,1.11 -3.098,2.143 -4.724,3.097 -3.253,1.911 -6.679,3.429 -10.206,4.751 -3.62,1.356 -5.183,-4.441 -1.595,-5.785 4.307,-1.615 8.393,-3.692 12.18,-6.309 2.845,-1.966 5.107,-5.013 8.734,-5.093 2.573,-0.056 3.993,3.339 2.122,5.121 C 22.238,-8.243 12.977,-1.072 3.028,5.181 -0.25,7.241 -3.265,2.052 0,0" /></g><g
           transform="translate(228.1821,253.1533)"
           id="g124"><path
             id="path126"
             style="fill:#1b75bb;fill-opacity:1;fill-rule:nonzero;stroke:none"
             d="m 0,0 c 5.288,-5.086 9.37,-10.905 12.411,-17.574 1.727,1.009 3.454,2.018 5.181,3.028 C 12.55,-6.963 7.508,0.62 2.465,8.203 c -3.505,5.272 -6.918,11.314 -13.612,12.672 -1.982,0.401 -4.627,-1.392 -3.691,-3.69 C -11.257,8.39 -2.313,6.217 3.505,-0.542 6.028,-3.474 10.256,0.787 7.748,3.7 c -4.793,5.568 -13.94,8.054 -16.8,15.079 -1.23,-1.229 -2.461,-2.46 -3.691,-3.69 6.34,-1.285 9.986,-9.852 13.269,-14.788 3.962,-5.959 7.924,-11.917 11.885,-17.875 2.168,-3.261 6.77,-0.456 5.181,3.028 C 14.347,-7.43 9.878,-1.178 4.243,4.242 1.459,6.92 -2.789,2.683 0,0" /></g><g
           transform="translate(264.9819,258.4365)"
           id="g128"><path
             id="path130"
             style="fill:#1b75bb;fill-opacity:1;fill-rule:nonzero;stroke:none"
             d="M 0,0 C -0.342,1.605 3.087,2.81 4.229,3.296 5.72,3.932 6.05,6.128 5.305,7.4 4.403,8.942 2.697,9.115 1.201,8.477 -2.998,6.687 -6.867,3.472 -5.786,-1.595 -5.447,-3.18 -3.592,-4.102 -2.095,-3.69 -0.455,-3.239 0.339,-1.59 0,0" /></g><g
           transform="translate(268.979,257.6758)"
           id="g132"><path
             id="path134"
             style="fill:#1b75bb;fill-opacity:1;fill-rule:nonzero;stroke:none"
             d="M 0,0 C 0.444,-4.964 -0.246,-9.774 -2.354,-14.312 -3.97,-17.792 1.2,-20.843 2.827,-17.34 5.376,-11.853 6.541,-6.045 6,0 5.659,3.815 -0.344,3.852 0,0" /></g><g
           transform="translate(279.6807,268.4043)"
           id="g136"><path
             id="path138"
             style="fill:#1b75bb;fill-opacity:1;fill-rule:nonzero;stroke:none"
             d="M 0,0 C 12.554,0 24.581,11.039 24,24 23.418,37.003 13.455,48 0,48 -12.554,48 -24.581,36.961 -24,24 -23.417,10.997 -13.455,0 0,0" /></g><g
           transform="translate(306.4556,298.2803)"
           id="g140"><path
             id="path142"
             style="fill:#1b75bb;fill-opacity:1;fill-rule:nonzero;stroke:none"
             d="m 0,0 c -0.347,-6.471 -0.025,-0.988 0.597,0.979 0.528,1.673 1.107,3.333 1.687,4.989 1.268,3.622 2.612,7.217 4.037,10.779 0.327,0.822 0.66,1.644 0.999,2.461 0.679,1.645 0.445,1.095 -0.703,-1.651 0.217,0.018 2.018,4.567 2.15,4.858 1.587,3.493 3.252,6.951 4.988,10.373 6.819,13.436 14.792,26.234 23.737,38.355 3.469,4.702 3.9,13.115 2.419,18.494 -1.533,5.567 -5.838,11.599 -11.03,14.342 C 16.354,110.599 4.032,106.192 -3.955,95.37 -13.602,82.297 -22.111,68.432 -29.273,53.846 -33.437,45.365 -37.17,36.655 -40.616,27.86 -44.182,18.761 -47.47,9.873 -48,0 c -0.674,-12.558 11.52,-24.56 24,-24 13.579,0.607 23.278,10.548 24,24" /></g><g
           transform="translate(355.6943,379.4653)"
           id="g144"><path
             id="path146"
             style="fill:#1b75bb;fill-opacity:1;fill-rule:nonzero;stroke:none"
             d="m 0,0 c -2.117,-2.431 -2.558,-3.003 -1.321,-1.715 0.551,0.585 1.141,1.131 1.768,1.637 -2.518,-1.912 -3.075,-2.328 -1.67,-1.249 1.835,1.413 3.667,2.828 5.498,4.246 3.101,2.554 5.548,5.461 7.888,8.761 3.588,5.06 5.197,10.917 5.69,17.054 0.101,1.276 0.255,2.545 0.197,3.83 0.129,3.525 -0.599,1.115 -2.184,-7.231 1.029,1.631 0.941,1.569 -0.263,-0.187 -1.334,-1.675 -1.312,-1.803 0.068,-0.384 -0.871,-0.651 -1.743,-1.303 -2.614,-1.954 1.417,0.866 2.769,1.992 4.13,2.943 2.743,1.917 5.515,3.791 8.314,5.627 5.853,3.838 11.827,7.48 17.895,10.969 10.887,6.261 15.599,21.995 8.609,32.836 -7.084,10.989 -21.187,15.31 -32.836,8.61 C 12.838,80.153 6.607,76.346 0.511,72.324 -6.347,67.8 -14.099,63.135 -19.792,57.209 c -4.108,-4.275 -7.361,-9.561 -8.937,-15.305 -0.824,-3 -1.07,-6.223 -1.221,-9.34 -0.373,-7.707 3.839,8.568 1.845,5.069 -1.103,-1.934 3.722,4.501 0.08,0.593 -1.325,-1.143 -0.68,-0.676 1.936,1.401 -1.239,-0.956 -2.477,-1.912 -3.715,-2.869 -4.814,-3.719 -8.262,-7.268 -11.642,-12.531 -6.797,-10.584 -2.522,-26.956 8.61,-32.837 C -20.93,-14.901 -7.253,-11.296 0,0" /></g><g
           transform="translate(387.4258,422.3618)"
           id="g148"><path
             id="path150"
             style="fill:#1b75bb;fill-opacity:1;fill-rule:nonzero;stroke:none"
             d="M 0,0 C 12.554,0 24.58,11.039 24,24 23.417,37.003 13.454,48 0,48 -12.554,48 -24.581,36.961 -24,24 -23.418,10.997 -13.455,0 0,0" /></g><g
           transform="translate(403.6377,428.4331)"
           id="g152"><path
             id="path154"
             style="fill:#1b75bb;fill-opacity:1;fill-rule:nonzero;stroke:none"
             d="M 0,0 C 5.989,4.234 8.289,7.184 12.738,12.95 L 8.985,8.093 c 1.036,1.249 2.135,2.321 3.383,3.357 L 7.511,7.697 c 5.681,4.378 11.576,8.409 16.533,13.631 8.649,9.11 9.722,25.017 0,33.941 -9.376,8.607 -24.707,9.726 -33.94,0 -2.131,-2.244 -4.375,-4.304 -6.791,-6.236 l 4.858,3.753 c -3.238,-2.471 -6.636,-4.757 -9.744,-7.395 -3.143,-2.667 -5.341,-5.889 -7.881,-9.18 l 3.753,4.857 c -0.766,-0.976 -1.507,-1.833 -2.407,-2.685 1.619,1.251 3.238,2.502 4.856,3.753 -0.324,-0.23 -0.649,-0.46 -0.975,-0.689 C -29.435,37.766 -33.511,33.44 -35.256,27.104 -36.838,21.359 -36.124,13.709 -32.837,8.61 -26.29,-1.544 -10.964,-7.75 0,0" /></g><g
           transform="translate(424.6514,479.0386)"
           id="g156"><path
             id="path158"
             style="fill:#1b75bb;fill-opacity:1;fill-rule:nonzero;stroke:none"
             d="m 0,0 c 1.863,7.463 10.624,9.791 16.865,12.361 3.618,1.491 7.072,3.098 10.209,5.464 2.659,2.005 5.054,4.988 8.253,6.123 -1.541,3.656 -3.082,7.311 -4.623,10.967 C 24.602,31.695 17.997,28.856 12.235,25.063 6.884,21.54 4.841,15.818 1.38,10.703 -1.773,6.043 -6.727,2.163 -8.688,-3.21 c -1.807,-4.953 -0.624,-10.804 5.235,-11.826 5.487,-0.958 12.476,1.046 17.428,3.354 5.515,2.57 9.105,7.028 13.082,11.441 8.922,9.903 19.478,18.123 29.962,26.283 6.086,4.739 -2.46,13.176 -8.486,8.486 C 39.709,27.659 30.852,20.766 22.938,12.838 19.389,9.281 16.382,5.094 12.659,1.729 9.49,-1.135 2.907,-4.005 -1.516,-3.251 -0.32,-4.17 0.875,-5.089 2.07,-6.009 c 0.072,-2.074 0.361,-2.266 0.868,-0.574 0.493,0.811 1.068,1.559 1.727,2.242 1.02,1.248 2.125,2.424 3.136,3.681 2.624,3.262 4.989,6.7 7.028,10.357 2.358,4.229 4.622,5.723 8.859,7.959 l 13.073,6.897 c 5.92,3.124 1.852,13.262 -4.624,10.967 C 27.859,34.003 24.826,31.441 21.39,28.577 17.245,25.123 12.271,23.423 7.348,21.395 -1.149,17.894 -9.213,12.638 -11.571,3.19 -13.441,-4.304 -1.872,-7.5 0,0" /></g></g></g></g></svg>