<svg width="1356" height="1072" viewBox="0 0 1356 1072" fill="none" xmlns="http://www.w3.org/2000/svg">
<rect x="0.5" y="0.5" width="1355" height="1063" fill="white"/>
<rect x="0.5" y="0.5" width="1355" height="1063" stroke="white"/>
<rect width="1356" height="1064" fill="white"/>
<path d="M448.203 225.914L450.53 227.808L448.203 225.914ZM498.991 166.839C498.821 165.191 497.347 163.992 495.699 164.162L468.841 166.925C467.193 167.095 465.994 168.568 466.164 170.216C466.334 171.864 467.807 173.063 469.455 172.893L493.329 170.437L495.785 194.311C495.955 195.959 497.429 197.158 499.077 196.988C500.725 196.819 501.924 195.345 501.754 193.697L498.991 166.839ZM450.53 227.808L498.334 169.039L493.679 165.253L445.875 224.021L450.53 227.808ZM496.783 370.692C434.134 353.906 409.603 278.122 450.53 227.808L445.875 224.021C402.204 277.71 428.38 358.576 495.23 376.488L496.783 370.692Z" fill="#124E73"/>
<path d="M907.057 332.938L904.73 331.045L907.057 332.938ZM856.269 392.014C856.439 393.662 857.912 394.861 859.561 394.691L886.419 391.928C888.067 391.758 889.266 390.285 889.096 388.637C888.926 386.988 887.453 385.79 885.805 385.959L861.931 388.416L859.474 364.542C859.305 362.894 857.831 361.695 856.183 361.865C854.535 362.034 853.336 363.508 853.506 365.156L856.269 392.014ZM904.73 331.045L856.926 389.814L861.581 393.6L909.385 334.831L904.73 331.045ZM858.477 188.16C921.126 204.947 945.657 280.731 904.73 331.045L909.385 334.831C953.056 281.143 926.88 200.277 860.03 182.365L858.477 188.16Z" fill="#124E73"/>
<path d="M907.057 737.914L904.73 739.808L904.73 739.808L907.057 737.914ZM856.269 678.839C856.439 677.191 857.912 675.992 859.561 676.162L886.419 678.925C888.067 679.095 889.266 680.568 889.096 682.216C888.926 683.864 887.453 685.063 885.805 684.893L861.931 682.437L859.474 706.311C859.305 707.959 857.831 709.158 856.183 708.988C854.535 708.819 853.336 707.345 853.506 705.697L856.269 678.839ZM904.73 739.808L856.926 681.039L861.581 677.253L909.385 736.021L904.73 739.808ZM858.477 882.693C921.125 865.906 945.657 790.122 904.73 739.808L909.385 736.021C953.056 789.71 926.88 870.576 860.03 888.488L858.477 882.693Z" fill="#124E73"/>
<path d="M448.203 844.938L450.53 843.045L448.203 844.938ZM498.991 904.014C498.821 905.662 497.347 906.861 495.699 906.691L468.841 903.928C467.193 903.758 465.994 902.285 466.164 900.637C466.333 898.988 467.807 897.79 469.455 897.959L493.329 900.416L495.785 876.542C495.955 874.894 497.429 873.695 499.077 873.865C500.725 874.034 501.923 875.508 501.754 877.156L498.991 904.014ZM450.53 843.045L498.334 901.814L493.679 905.6L445.875 846.831L450.53 843.045ZM496.783 700.16C434.134 716.947 409.603 792.73 450.53 843.045L445.875 846.831C402.204 793.143 428.38 712.277 495.23 694.365L496.783 700.16Z" fill="#124E73"/>
<path d="M368.118 764.854L370.011 762.526L368.118 764.854ZM309.042 714.066C307.394 714.235 306.196 715.709 306.365 717.357L309.128 744.215C309.298 745.863 310.772 747.062 312.42 746.892C314.068 746.723 315.267 745.249 315.097 743.601L312.641 719.727L336.515 717.271C338.163 717.101 339.361 715.628 339.192 713.98C339.022 712.331 337.549 711.133 335.901 711.302L309.042 714.066ZM370.011 762.526L311.242 714.723L307.456 719.377L366.225 767.181L370.011 762.526ZM512.896 716.274C496.109 778.922 420.326 803.454 370.011 762.526L366.225 767.181C419.914 810.853 500.779 784.676 518.692 717.826L512.896 716.274Z" fill="#124E73"/>
<path d="M475.142 305.999L473.249 308.326L475.142 305.999ZM534.218 356.787C535.866 356.617 537.064 355.144 536.895 353.496L534.131 326.638C533.962 324.989 532.488 323.791 530.84 323.96C529.192 324.13 527.993 325.603 528.163 327.252L530.619 351.126L506.745 353.582C505.097 353.751 503.898 355.225 504.068 356.873C504.238 358.521 505.711 359.72 507.359 359.55L534.218 356.787ZM473.249 308.326L532.017 356.13L535.804 351.475L477.035 303.672L473.249 308.326ZM330.364 354.579C347.15 291.931 422.934 267.399 473.249 308.326L477.035 303.672C423.346 260 342.481 286.177 324.568 353.026L330.364 354.579Z" fill="#124E73"/>
<g filter="url(#filter0_d_202_3)">
<path d="M880.118 305.999L882.011 308.326L882.011 308.326L880.118 305.999ZM821.042 356.787C819.394 356.618 818.196 355.144 818.365 353.496L821.128 326.638C821.298 324.989 822.772 323.791 824.42 323.96C826.068 324.13 827.267 325.603 827.097 327.252L824.641 351.126L848.515 353.582C850.163 353.752 851.361 355.225 851.192 356.873C851.022 358.521 849.549 359.72 847.901 359.55L821.042 356.787ZM882.011 308.326L823.242 356.13L819.456 351.476L878.225 303.672L882.011 308.326ZM1024.9 354.579C1008.11 291.931 932.326 267.399 882.011 308.326L878.225 303.672C931.914 260 1012.78 286.177 1030.69 353.026L1024.9 354.579Z" fill="#124E73"/>
</g>
<path d="M987.142 764.854L985.249 762.526L985.249 762.526L987.142 764.854ZM1046.22 714.066C1047.87 714.235 1049.06 715.709 1048.89 717.357L1046.13 744.215C1045.96 745.863 1044.49 747.062 1042.84 746.893C1041.19 746.723 1039.99 745.249 1040.16 743.601L1042.62 719.727L1018.75 717.271C1017.1 717.101 1015.9 715.628 1016.07 713.98C1016.24 712.332 1017.71 711.133 1019.36 711.302L1046.22 714.066ZM985.249 762.526L1044.02 714.723L1047.8 719.377L989.035 767.181L985.249 762.526ZM842.364 716.274C859.15 778.922 934.934 803.454 985.249 762.526L989.035 767.181C935.346 810.853 854.481 784.676 836.568 717.826L842.364 716.274Z" fill="#124E73"/>
<g filter="url(#filter1_d_202_3)">
<rect x="930" y="391" width="296" height="295.97" rx="12" fill="white" shape-rendering="crispEdges"/>
<g clip-path="url(#clip0_202_3)">
<rect width="200" height="199.97" transform="translate(978 439)" fill="white" fill-opacity="0.2"/>
<path d="M1033.84 439C1035.63 439.63 1037.08 440.64 1037.72 442.52C1038.85 445.86 1036.37 449.22 1032.7 449.28C1029.87 449.33 1027.04 449.28 1024.21 449.29C1019.43 449.29 1014.65 449.22 1009.87 449.32C997.91 449.56 988.54 458.91 988.34 470.86C988.22 478.37 988.3 485.88 988.31 493.4C988.31 495.39 987.62 497.03 985.92 498.14C983.16 499.94 979.57 498.73 978.34 495.63C978.23 495.36 978.11 495.1 978 494.84C978 486.25 978 477.66 978 469.07C978.06 468.82 978.14 468.57 978.17 468.32C979.49 454.14 989.55 442.78 1003.48 439.77C1004.99 439.44 1006.54 439.25 1008.07 439H1033.84Z" fill="#124E73"/>
<path d="M1147.86 439C1149.46 439.26 1151.07 439.46 1152.65 439.8C1166.4 442.75 1176.65 454.47 1177.76 468.49C1177.86 469.79 1177.91 471.09 1177.92 472.39C1177.93 479.52 1177.94 486.64 1177.92 493.77C1177.92 496.3 1176.19 498.39 1173.79 498.89C1171.48 499.37 1169.08 498.17 1168.13 495.91C1167.79 495.1 1167.65 494.15 1167.65 493.26C1167.61 486.1 1167.63 478.94 1167.63 471.79C1167.63 465.02 1165.24 459.27 1160.15 454.76C1156.4 451.43 1151.96 449.51 1146.95 449.4C1139.15 449.22 1131.33 449.32 1123.53 449.32C1121.53 449.32 1119.89 448.63 1118.79 446.93C1116.99 444.17 1118.2 440.58 1121.3 439.35C1121.57 439.24 1121.83 439.13 1122.09 439.01C1130.68 439.01 1139.27 439.01 1147.86 439.01V439Z" fill="#124E73"/>
<path d="M978 583.09C978.63 581.3 979.64 579.85 981.53 579.21C984.87 578.08 988.24 580.56 988.29 584.24C988.34 587.75 988.29 591.27 988.3 594.78C988.3 598.88 988.24 602.98 988.33 607.08C988.58 619.04 997.93 628.4 1009.9 628.6C1017.41 628.72 1024.93 628.63 1032.45 628.64C1035.02 628.64 1037 630 1037.73 632.19C1038.81 635.47 1036.38 638.89 1032.88 638.92C1027.74 638.96 1022.6 638.95 1017.46 638.92C1014.14 638.9 1010.81 638.99 1007.51 638.74C993.48 637.68 981.77 627.4 978.81 613.65C978.47 612.07 978.27 610.45 978.01 608.86V583.09H978Z" fill="#124E73"/>
<path d="M1135.28 628.62C1138.89 628.62 1142.51 628.69 1146.12 628.61C1158.02 628.35 1167.39 619.01 1167.6 607.1C1167.73 599.59 1167.63 592.07 1167.64 584.55C1167.64 581.99 1168.9 580.07 1171.05 579.27C1174.19 578.11 1177.86 580.38 1177.89 583.73C1177.95 592.29 1178.2 600.86 1177.7 609.39C1176.9 622.95 1167.33 634.26 1154.21 637.71C1151.44 638.44 1148.51 638.82 1145.65 638.88C1138.14 639.04 1130.62 638.95 1123.1 638.93C1120.64 638.93 1118.57 637.19 1118.07 634.82C1117.58 632.49 1118.82 630.03 1121.11 629.1C1121.87 628.79 1122.75 628.67 1123.58 628.66C1127.48 628.62 1131.39 628.64 1135.29 628.64V628.62H1135.28Z" fill="#124E73"/>
<path d="M1099.64 600.33C1084.68 600.34 1073.04 595.99 1063.16 586.99C1060.77 584.81 1060.45 581.63 1062.44 579.35C1064.4 577.09 1067.72 576.93 1070.1 579.09C1074.79 583.36 1080.05 586.7 1086.23 588.23C1100.71 591.84 1113.97 589.59 1125.39 579.44C1127.01 578 1128.73 577.17 1130.89 577.75C1134.86 578.81 1136.17 583.76 1133.17 586.59C1127.68 591.78 1121.36 595.61 1114.14 597.91C1108.89 599.58 1103.51 600.35 1099.64 600.33Z" fill="#124E73"/>
<path d="M1118.5 533.21C1118.5 539.13 1118.52 545.05 1118.5 550.97C1118.48 555.8 1116.83 559.87 1112.79 562.76C1110.44 564.44 1107.77 565.18 1104.91 565.25C1103.29 565.29 1101.64 565.35 1100.04 565.14C1097.38 564.78 1095.48 562.25 1095.7 559.63C1095.92 556.96 1098.12 554.84 1100.79 554.77C1101.93 554.74 1103.07 554.77 1104.21 554.76C1106.92 554.73 1107.97 553.68 1107.97 550.94C1107.97 538.87 1107.97 526.8 1107.97 514.73C1107.97 512.68 1108.75 511.05 1110.48 509.96C1112.18 508.89 1113.98 508.83 1115.76 509.83C1117.59 510.86 1118.5 512.47 1118.5 514.56C1118.52 520.77 1118.5 526.99 1118.5 533.2V533.21Z" fill="#124E73"/>
<path d="M1052.36 521.62C1052.36 519.34 1052.36 517.07 1052.36 514.79C1052.36 512.85 1053.02 511.21 1054.62 510.06C1057.52 507.99 1061.52 509.71 1062.23 513.31C1062.26 513.47 1062.3 513.63 1062.3 513.79C1062.3 519.05 1062.42 524.32 1062.24 529.58C1062.15 532.28 1059.81 534.16 1057.29 534.13C1054.79 534.1 1052.61 532.11 1052.46 529.42C1052.31 526.83 1052.43 524.22 1052.43 521.62H1052.37H1052.36Z" fill="#124E73"/>
<path d="M1134.83 521.59C1134.83 519.09 1134.77 516.58 1134.85 514.08C1134.92 511.77 1136.64 509.74 1138.75 509.28C1141.77 508.63 1144.69 510.9 1144.77 514.2C1144.88 519.17 1144.87 524.15 1144.77 529.13C1144.71 532.03 1142.38 534.17 1139.69 534.13C1137.02 534.08 1134.9 531.84 1134.83 528.91C1134.78 526.47 1134.82 524.03 1134.82 521.59H1134.84H1134.83Z" fill="#124E73"/>
</g>
</g>
<g filter="url(#filter2_d_202_3)">
<rect x="534" y="767.94" width="296" height="295.97" rx="12" fill="white" shape-rendering="crispEdges"/>
<g clip-path="url(#clip1_202_3)">
<path d="M637.84 815.94C639.63 816.57 641.08 817.58 641.72 819.46C642.85 822.8 640.37 826.16 636.7 826.22C633.87 826.27 631.04 826.22 628.21 826.23C623.43 826.23 618.65 826.16 613.87 826.26C601.91 826.5 592.54 835.85 592.34 847.8C592.22 855.31 592.3 862.82 592.31 870.34C592.31 872.33 591.62 873.97 589.92 875.08C587.16 876.88 583.57 875.67 582.34 872.57C582.23 872.3 582.11 872.04 582 871.78C582 863.19 582 854.6 582 846.01C582.06 845.76 582.14 845.51 582.17 845.26C583.49 831.08 593.55 819.72 607.48 816.71C608.99 816.38 610.54 816.19 612.07 815.94H637.84Z" fill="#124E73"/>
<path d="M751.86 815.94C753.46 816.2 755.07 816.4 756.65 816.74C770.4 819.69 780.65 831.41 781.76 845.43C781.86 846.73 781.91 848.03 781.92 849.33C781.93 856.46 781.94 863.58 781.92 870.71C781.92 873.24 780.19 875.33 777.79 875.83C775.48 876.31 773.08 875.11 772.13 872.85C771.79 872.04 771.65 871.09 771.65 870.2C771.61 863.04 771.63 855.88 771.63 848.73C771.63 841.96 769.24 836.21 764.15 831.7C760.4 828.37 755.96 826.45 750.95 826.34C743.15 826.16 735.33 826.26 727.53 826.26C725.53 826.26 723.89 825.57 722.79 823.87C720.99 821.11 722.2 817.52 725.3 816.29C725.57 816.18 725.83 816.07 726.09 815.95C734.68 815.95 743.27 815.95 751.86 815.95V815.94Z" fill="#124E73"/>
<path d="M582 960.03C582.63 958.24 583.64 956.79 585.53 956.15C588.87 955.02 592.24 957.5 592.29 961.18C592.34 964.69 592.29 968.21 592.3 971.72C592.3 975.82 592.24 979.92 592.33 984.02C592.58 995.98 601.93 1005.34 613.9 1005.54C621.41 1005.66 628.93 1005.57 636.45 1005.58C639.02 1005.58 641 1006.94 641.73 1009.13C642.81 1012.41 640.38 1015.83 636.88 1015.86C631.74 1015.9 626.6 1015.89 621.46 1015.86C618.14 1015.84 614.81 1015.93 611.51 1015.68C597.48 1014.62 585.77 1004.34 582.81 990.59C582.47 989.01 582.27 987.39 582.01 985.8V960.03H582Z" fill="#124E73"/>
<path d="M739.28 1005.56C742.89 1005.56 746.51 1005.63 750.12 1005.55C762.02 1005.29 771.39 995.95 771.6 984.04C771.73 976.53 771.63 969.01 771.64 961.49C771.64 958.93 772.9 957.01 775.05 956.21C778.19 955.05 781.86 957.32 781.89 960.67C781.95 969.23 782.2 977.8 781.7 986.33C780.9 999.89 771.33 1011.2 758.21 1014.65C755.44 1015.38 752.51 1015.76 749.65 1015.82C742.14 1015.98 734.62 1015.89 727.1 1015.87C724.64 1015.87 722.57 1014.13 722.07 1011.76C721.58 1009.43 722.82 1006.97 725.11 1006.04C725.87 1005.73 726.75 1005.61 727.58 1005.6C731.48 1005.56 735.39 1005.58 739.29 1005.58V1005.56H739.28Z" fill="#124E73"/>
<path d="M683.64 997.27C668.68 997.28 657.04 992.93 647.16 983.93C644.77 981.75 644.45 978.57 646.44 976.29C648.4 974.03 651.72 973.87 654.1 976.03C658.79 980.3 664.05 983.64 670.23 985.17C684.71 988.78 697.97 986.53 709.39 976.38C711.01 974.94 712.73 974.11 714.89 974.69C718.86 975.75 720.17 980.7 717.17 983.53C711.68 988.72 705.36 992.55 698.14 994.85C692.89 996.52 687.51 997.29 683.64 997.27V997.27Z" fill="#124E73"/>
<path d="M692.5 930.15C692.5 936.07 692.52 941.99 692.5 947.91C692.48 952.74 690.83 956.81 686.79 959.7C684.44 961.38 681.77 962.12 678.91 962.19C677.29 962.23 675.64 962.29 674.04 962.08C671.38 961.72 669.48 959.19 669.7 956.57C669.92 953.9 672.12 951.78 674.79 951.71C675.93 951.68 677.07 951.71 678.21 951.7C680.92 951.67 681.97 950.62 681.97 947.88C681.97 935.81 681.97 923.74 681.97 911.67C681.97 909.62 682.75 907.99 684.48 906.9C686.18 905.83 687.98 905.77 689.76 906.77C691.59 907.8 692.5 909.41 692.5 911.5C692.52 917.71 692.5 923.93 692.5 930.14V930.15Z" fill="#124E73"/>
<path d="M636.36 918.56C636.36 916.28 636.36 914.01 636.36 911.73C636.36 909.79 637.02 908.15 638.62 907C641.52 904.93 645.52 906.65 646.23 910.25C646.26 910.41 646.3 910.57 646.3 910.73C646.3 915.99 646.42 921.26 646.24 926.52C646.15 929.22 643.81 931.1 641.29 931.07C638.79 931.04 636.61 929.05 636.46 926.36C636.31 923.77 636.43 921.16 636.43 918.56H636.37H636.36Z" fill="#124E73"/>
<path d="M718.83 918.53C718.83 916.03 718.77 913.52 718.85 911.02C718.92 908.71 720.64 906.68 722.75 906.22C725.77 905.57 728.69 907.84 728.77 911.14C728.88 916.11 728.87 921.09 728.77 926.07C728.71 928.97 726.38 931.11 723.69 931.07C721.02 931.02 718.9 928.78 718.83 925.85C718.78 923.41 718.82 920.97 718.82 918.53H718.84H718.83Z" fill="#124E73"/>
</g>
</g>
<g filter="url(#filter3_d_202_3)">
<rect x="534" y="14" width="296" height="295.97" rx="12" fill="white" shape-rendering="crispEdges"/>
<g clip-path="url(#clip2_202_3)">
<path d="M637.84 62C639.63 62.63 641.08 63.64 641.72 65.52C642.85 68.86 640.37 72.22 636.7 72.28C633.87 72.33 631.04 72.28 628.21 72.29C623.43 72.29 618.65 72.22 613.87 72.32C601.91 72.56 592.54 81.91 592.34 93.86C592.22 101.37 592.3 108.88 592.31 116.4C592.31 118.39 591.62 120.03 589.92 121.14C587.16 122.94 583.57 121.73 582.34 118.63C582.23 118.36 582.11 118.1 582 117.84C582 109.25 582 100.66 582 92.07C582.06 91.82 582.14 91.57 582.17 91.32C583.49 77.14 593.55 65.78 607.48 62.77C608.99 62.44 610.54 62.25 612.07 62H637.84Z" fill="#124E73"/>
<path d="M751.86 62C753.46 62.26 755.07 62.46 756.65 62.8C770.4 65.75 780.65 77.47 781.76 91.49C781.86 92.79 781.91 94.09 781.92 95.39C781.93 102.52 781.94 109.64 781.92 116.77C781.92 119.3 780.19 121.39 777.79 121.89C775.48 122.37 773.08 121.17 772.13 118.91C771.79 118.1 771.65 117.15 771.65 116.26C771.61 109.1 771.63 101.94 771.63 94.79C771.63 88.02 769.24 82.27 764.15 77.76C760.4 74.43 755.96 72.51 750.95 72.4C743.15 72.22 735.33 72.32 727.53 72.32C725.53 72.32 723.89 71.63 722.79 69.93C720.99 67.17 722.2 63.58 725.3 62.35C725.57 62.24 725.83 62.13 726.09 62.01C734.68 62.01 743.27 62.01 751.86 62.01V62Z" fill="#124E73"/>
<path d="M582 206.09C582.63 204.3 583.64 202.85 585.53 202.21C588.87 201.08 592.24 203.56 592.29 207.24C592.34 210.75 592.29 214.27 592.3 217.78C592.3 221.88 592.24 225.98 592.33 230.08C592.58 242.04 601.93 251.4 613.9 251.6C621.41 251.72 628.93 251.63 636.45 251.64C639.02 251.64 641 253 641.73 255.19C642.81 258.47 640.38 261.89 636.88 261.92C631.74 261.96 626.6 261.95 621.46 261.92C618.14 261.9 614.81 261.99 611.51 261.74C597.48 260.68 585.77 250.4 582.81 236.65C582.47 235.07 582.27 233.45 582.01 231.86V206.09H582Z" fill="#124E73"/>
<path d="M739.28 251.62C742.89 251.62 746.51 251.69 750.12 251.61C762.02 251.35 771.39 242.01 771.6 230.1C771.73 222.59 771.63 215.07 771.64 207.55C771.64 204.99 772.9 203.07 775.05 202.27C778.19 201.11 781.86 203.38 781.89 206.73C781.95 215.29 782.2 223.86 781.7 232.39C780.9 245.95 771.33 257.26 758.21 260.71C755.44 261.44 752.51 261.82 749.65 261.88C742.14 262.04 734.62 261.95 727.1 261.93C724.64 261.93 722.57 260.19 722.07 257.82C721.58 255.49 722.82 253.03 725.11 252.1C725.87 251.79 726.75 251.67 727.58 251.66C731.48 251.62 735.39 251.64 739.29 251.64V251.62H739.28Z" fill="#124E73"/>
<path d="M683.64 203.33C668.68 203.34 657.04 198.99 647.16 189.99C644.77 187.81 644.45 184.63 646.44 182.35C648.4 180.09 651.72 179.93 654.1 182.09C658.79 186.36 664.05 189.7 670.23 191.23C684.71 194.84 697.97 192.59 709.39 182.44C711.01 181 712.73 180.17 714.89 180.75C718.86 181.81 720.17 186.76 717.17 189.59C711.68 194.78 705.36 198.61 698.14 200.91C692.89 202.58 687.51 203.35 683.64 203.33Z" fill="#124E73"/>
<path d="M692.5 126.21C692.5 132.13 692.52 138.05 692.5 143.97C692.48 148.8 690.83 152.87 686.79 155.76C684.44 157.44 681.77 158.18 678.91 158.25C677.29 158.29 675.64 158.35 674.04 158.14C671.38 157.78 669.48 155.25 669.7 152.63C669.92 149.96 672.12 147.84 674.79 147.77C675.93 147.74 677.07 147.77 678.21 147.76C680.92 147.73 681.97 146.68 681.97 143.94C681.97 131.87 681.97 119.8 681.97 107.73C681.97 105.68 682.75 104.05 684.48 102.96C686.18 101.89 687.98 101.83 689.76 102.83C691.59 103.86 692.5 105.47 692.5 107.56C692.52 113.77 692.5 119.99 692.5 126.2V126.21Z" fill="#124E73"/>
<path d="M636.36 124.62C636.36 122.34 636.36 120.07 636.36 117.79C636.36 115.85 637.02 114.21 638.62 113.06C641.52 110.99 645.52 112.71 646.23 116.31C646.26 116.47 646.3 116.63 646.3 116.79C646.3 122.05 646.42 127.32 646.24 132.58C646.15 135.28 643.81 137.16 641.29 137.13C638.79 137.1 636.61 135.11 636.46 132.42C636.31 129.83 636.43 127.22 636.43 124.62H636.37H636.36Z" fill="#124E73"/>
<path d="M718.83 124.59C718.83 122.09 718.77 119.58 718.85 117.08C718.92 114.77 720.64 112.74 722.75 112.28C725.77 111.63 728.69 113.9 728.77 117.2C728.88 122.17 728.87 127.15 728.77 132.13C728.71 135.03 726.38 137.17 723.69 137.13C721.02 137.08 718.9 134.84 718.83 131.91C718.78 129.47 718.82 127.03 718.82 124.59H718.84H718.83Z" fill="#124E73"/>
</g>
</g>
<g filter="url(#filter4_d_202_3)">
<rect x="534" y="390.97" width="296" height="295.97" rx="12" fill="white" shape-rendering="crispEdges"/>
<g clip-path="url(#clip3_202_3)">
<path d="M637.84 438.97C639.63 439.6 641.08 440.61 641.72 442.49C642.85 445.83 640.37 449.19 636.7 449.25C633.87 449.3 631.04 449.25 628.21 449.26C623.43 449.26 618.65 449.19 613.87 449.29C601.91 449.53 592.54 458.88 592.34 470.83C592.22 478.34 592.3 485.85 592.31 493.37C592.31 495.36 591.62 497 589.92 498.11C587.16 499.91 583.57 498.7 582.34 495.6C582.23 495.33 582.11 495.07 582 494.81C582 486.22 582 477.63 582 469.04C582.06 468.79 582.14 468.54 582.17 468.29C583.49 454.11 593.55 442.75 607.48 439.74C608.99 439.41 610.54 439.22 612.07 438.97H637.84Z" fill="#124E73"/>
<path d="M751.86 438.97C753.46 439.23 755.07 439.43 756.65 439.77C770.4 442.72 780.65 454.44 781.76 468.46C781.86 469.76 781.91 471.06 781.92 472.36C781.93 479.49 781.94 486.61 781.92 493.74C781.92 496.27 780.19 498.36 777.79 498.86C775.48 499.34 773.08 498.14 772.13 495.88C771.79 495.07 771.65 494.12 771.65 493.23C771.61 486.07 771.63 478.91 771.63 471.76C771.63 464.99 769.24 459.24 764.15 454.73C760.4 451.4 755.96 449.48 750.95 449.37C743.15 449.19 735.33 449.29 727.53 449.29C725.53 449.29 723.89 448.6 722.79 446.9C720.99 444.14 722.2 440.55 725.3 439.32C725.57 439.21 725.83 439.1 726.09 438.98C734.68 438.98 743.27 438.98 751.86 438.98V438.97Z" fill="#124E73"/>
<path d="M582 583.06C582.63 581.27 583.64 579.82 585.53 579.18C588.87 578.05 592.24 580.53 592.29 584.21C592.34 587.72 592.29 591.24 592.3 594.75C592.3 598.85 592.24 602.95 592.33 607.05C592.58 619.01 601.93 628.37 613.9 628.57C621.41 628.69 628.93 628.6 636.45 628.61C639.02 628.61 641 629.97 641.73 632.16C642.81 635.44 640.38 638.86 636.88 638.89C631.74 638.93 626.6 638.92 621.46 638.89C618.14 638.87 614.81 638.96 611.51 638.71C597.48 637.65 585.77 627.37 582.81 613.62C582.47 612.04 582.27 610.42 582.01 608.83V583.06H582Z" fill="#124E73"/>
<path d="M739.28 628.59C742.89 628.59 746.51 628.66 750.12 628.58C762.02 628.32 771.39 618.98 771.6 607.07C771.73 599.56 771.63 592.04 771.64 584.52C771.64 581.96 772.9 580.04 775.05 579.24C778.19 578.08 781.86 580.35 781.89 583.7C781.95 592.26 782.2 600.83 781.7 609.36C780.9 622.92 771.33 634.23 758.21 637.68C755.44 638.41 752.51 638.79 749.65 638.85C742.14 639.01 734.62 638.92 727.1 638.9C724.64 638.9 722.57 637.16 722.07 634.79C721.58 632.46 722.82 630 725.11 629.07C725.87 628.76 726.75 628.64 727.58 628.63C731.48 628.59 735.39 628.61 739.29 628.61V628.59H739.28Z" fill="#124E73"/>
<path d="M683.64 600.3C668.68 600.31 657.04 595.96 647.16 586.96C644.77 584.78 644.45 581.6 646.44 579.32C648.4 577.06 651.72 576.9 654.1 579.06C658.79 583.33 664.05 586.67 670.23 588.2C684.71 591.81 697.97 589.56 709.39 579.41C711.01 577.97 712.73 577.14 714.89 577.72C718.86 578.78 720.17 583.73 717.17 586.56C711.68 591.75 705.36 595.58 698.14 597.88C692.89 599.55 687.51 600.32 683.64 600.3V600.3Z" fill="#124E73"/>
<path d="M692.5 533.18C692.5 539.1 692.52 545.02 692.5 550.94C692.48 555.77 690.83 559.84 686.79 562.73C684.44 564.41 681.77 565.15 678.91 565.22C677.29 565.26 675.64 565.32 674.04 565.11C671.38 564.75 669.48 562.22 669.7 559.6C669.92 556.93 672.12 554.81 674.79 554.74C675.93 554.71 677.07 554.74 678.21 554.73C680.92 554.7 681.97 553.65 681.97 550.91C681.97 538.84 681.97 526.77 681.97 514.7C681.97 512.65 682.75 511.02 684.48 509.93C686.18 508.86 687.98 508.8 689.76 509.8C691.59 510.83 692.5 512.44 692.5 514.53C692.52 520.74 692.5 526.96 692.5 533.17V533.18Z" fill="#124E73"/>
<path d="M636.36 521.59C636.36 519.31 636.36 517.04 636.36 514.76C636.36 512.82 637.02 511.18 638.62 510.03C641.52 507.96 645.52 509.68 646.23 513.28C646.26 513.44 646.3 513.6 646.3 513.76C646.3 519.02 646.42 524.29 646.24 529.55C646.15 532.25 643.81 534.13 641.29 534.1C638.79 534.07 636.61 532.08 636.46 529.39C636.31 526.8 636.43 524.19 636.43 521.59H636.37H636.36Z" fill="#124E73"/>
<path d="M718.83 521.56C718.83 519.06 718.77 516.55 718.85 514.05C718.92 511.74 720.64 509.71 722.75 509.25C725.77 508.6 728.69 510.87 728.77 514.17C728.88 519.14 728.87 524.12 728.77 529.1C728.71 532 726.38 534.14 723.69 534.1C721.02 534.05 718.9 531.81 718.83 528.88C718.78 526.44 718.82 524 718.82 521.56H718.84H718.83Z" fill="#124E73"/>
</g>
</g>
<g filter="url(#filter5_d_202_3)">
<rect x="138" y="391" width="296" height="295.97" rx="12" fill="white" shape-rendering="crispEdges"/>
<g clip-path="url(#clip4_202_3)">
<path d="M241.84 439C243.63 439.63 245.08 440.64 245.72 442.52C246.85 445.86 244.37 449.22 240.7 449.28C237.87 449.33 235.04 449.28 232.21 449.29C227.43 449.29 222.65 449.22 217.87 449.32C205.91 449.56 196.54 458.91 196.34 470.86C196.22 478.37 196.3 485.88 196.31 493.4C196.31 495.39 195.62 497.03 193.92 498.14C191.16 499.94 187.57 498.73 186.34 495.63C186.23 495.36 186.11 495.1 186 494.84C186 486.25 186 477.66 186 469.07C186.06 468.82 186.14 468.57 186.17 468.32C187.49 454.14 197.55 442.78 211.48 439.77C212.99 439.44 214.54 439.25 216.07 439H241.84Z" fill="#124E73"/>
<path d="M355.86 439C357.46 439.26 359.07 439.46 360.65 439.8C374.4 442.75 384.65 454.47 385.76 468.49C385.86 469.79 385.91 471.09 385.92 472.39C385.93 479.52 385.94 486.64 385.92 493.77C385.92 496.3 384.19 498.39 381.79 498.89C379.48 499.37 377.08 498.17 376.13 495.91C375.79 495.1 375.65 494.15 375.65 493.26C375.61 486.1 375.63 478.94 375.63 471.79C375.63 465.02 373.24 459.27 368.15 454.76C364.4 451.43 359.96 449.51 354.95 449.4C347.15 449.22 339.33 449.32 331.53 449.32C329.53 449.32 327.89 448.63 326.79 446.93C324.99 444.17 326.2 440.58 329.3 439.35C329.57 439.24 329.83 439.13 330.09 439.01C338.68 439.01 347.27 439.01 355.86 439.01V439Z" fill="#124E73"/>
<path d="M186 583.09C186.63 581.3 187.64 579.85 189.53 579.21C192.87 578.08 196.24 580.56 196.29 584.24C196.34 587.75 196.29 591.27 196.3 594.78C196.3 598.88 196.24 602.98 196.33 607.08C196.58 619.04 205.93 628.4 217.9 628.6C225.41 628.72 232.93 628.63 240.45 628.64C243.02 628.64 245 630 245.73 632.19C246.81 635.47 244.38 638.89 240.88 638.92C235.74 638.96 230.6 638.95 225.46 638.92C222.14 638.9 218.81 638.99 215.51 638.74C201.48 637.68 189.77 627.4 186.81 613.65C186.47 612.07 186.27 610.45 186.01 608.86V583.09H186Z" fill="#124E73"/>
<path d="M343.28 628.62C346.89 628.62 350.51 628.69 354.12 628.61C366.02 628.35 375.39 619.01 375.6 607.1C375.73 599.59 375.63 592.07 375.64 584.55C375.64 581.99 376.9 580.07 379.05 579.27C382.19 578.11 385.86 580.38 385.89 583.73C385.95 592.29 386.2 600.86 385.7 609.39C384.9 622.95 375.33 634.26 362.21 637.71C359.44 638.44 356.51 638.82 353.65 638.88C346.14 639.04 338.62 638.95 331.1 638.93C328.64 638.93 326.57 637.19 326.07 634.82C325.58 632.49 326.82 630.03 329.11 629.1C329.87 628.79 330.75 628.67 331.58 628.66C335.48 628.62 339.39 628.64 343.29 628.64V628.62H343.28Z" fill="#124E73"/>
<path d="M267.64 600.33C252.68 600.34 241.04 595.99 231.16 586.99C228.77 584.81 228.45 581.63 230.44 579.35C232.4 577.09 235.72 576.93 238.1 579.09C242.79 583.36 248.05 586.7 254.23 588.23C268.71 591.84 281.97 589.59 293.39 579.44C295.01 578 296.73 577.17 298.89 577.75C302.86 578.81 304.17 583.76 301.17 586.59C295.68 591.78 289.36 595.61 282.14 597.91C276.89 599.58 271.51 600.35 267.64 600.33V600.33Z" fill="#124E73"/>
<path d="M266.5 533.21C266.5 539.13 266.52 545.05 266.5 550.97C266.48 555.8 264.83 559.87 260.79 562.76C258.44 564.44 255.77 565.18 252.91 565.25C251.29 565.29 249.64 565.35 248.04 565.14C245.38 564.78 243.48 562.25 243.7 559.63C243.92 556.96 246.12 554.84 248.79 554.77C249.93 554.74 251.07 554.77 252.21 554.76C254.92 554.73 255.97 553.68 255.97 550.94C255.97 538.87 255.97 526.8 255.97 514.73C255.97 512.68 256.75 511.05 258.48 509.96C260.18 508.89 261.98 508.83 263.76 509.83C265.59 510.86 266.5 512.47 266.5 514.56C266.52 520.77 266.5 526.99 266.5 533.2V533.21Z" fill="#124E73"/>
<path d="M220.36 521.62C220.36 519.34 220.36 517.07 220.36 514.79C220.36 512.85 221.02 511.21 222.62 510.06C225.52 507.99 229.52 509.71 230.23 513.31C230.26 513.47 230.3 513.63 230.3 513.79C230.3 519.05 230.42 524.32 230.24 529.58C230.15 532.28 227.81 534.16 225.29 534.13C222.79 534.1 220.61 532.11 220.46 529.42C220.31 526.83 220.43 524.22 220.43 521.62H220.37H220.36Z" fill="#124E73"/>
<path d="M302.83 521.59C302.83 519.09 302.77 516.58 302.85 514.08C302.92 511.77 304.64 509.74 306.75 509.28C309.77 508.63 312.69 510.9 312.77 514.2C312.88 519.17 312.87 524.15 312.77 529.13C312.71 532.03 310.38 534.17 307.69 534.13C305.02 534.08 302.9 531.84 302.83 528.91C302.78 526.47 302.82 524.03 302.82 521.59H302.84H302.83Z" fill="#124E73"/>
</g>
</g>
<defs>
<filter id="filter0_d_202_3" x="814.349" y="282.201" width="220.342" height="85.3656" filterUnits="userSpaceOnUse" color-interpolation-filters="sRGB">
<feFlood flood-opacity="0" result="BackgroundImageFix"/>
<feColorMatrix in="SourceAlpha" type="matrix" values="0 0 0 0 0 0 0 0 0 0 0 0 0 0 0 0 0 0 127 0" result="hardAlpha"/>
<feOffset dy="4"/>
<feGaussianBlur stdDeviation="2"/>
<feComposite in2="hardAlpha" operator="out"/>
<feColorMatrix type="matrix" values="0 0 0 0 0 0 0 0 0 0 0 0 0 0 0 0 0 0 0.25 0"/>
<feBlend mode="normal" in2="BackgroundImageFix" result="effect1_dropShadow_202_3"/>
<feBlend mode="normal" in="SourceGraphic" in2="effect1_dropShadow_202_3" result="shape"/>
</filter>
<filter id="filter1_d_202_3" x="926" y="391" width="304" height="303.97" filterUnits="userSpaceOnUse" color-interpolation-filters="sRGB">
<feFlood flood-opacity="0" result="BackgroundImageFix"/>
<feColorMatrix in="SourceAlpha" type="matrix" values="0 0 0 0 0 0 0 0 0 0 0 0 0 0 0 0 0 0 127 0" result="hardAlpha"/>
<feOffset dy="4"/>
<feGaussianBlur stdDeviation="2"/>
<feComposite in2="hardAlpha" operator="out"/>
<feColorMatrix type="matrix" values="0 0 0 0 0 0 0 0 0 0 0 0 0 0 0 0 0 0 0.25 0"/>
<feBlend mode="normal" in2="BackgroundImageFix" result="effect1_dropShadow_202_3"/>
<feBlend mode="normal" in="SourceGraphic" in2="effect1_dropShadow_202_3" result="shape"/>
</filter>
<filter id="filter2_d_202_3" x="530" y="767.94" width="304" height="303.97" filterUnits="userSpaceOnUse" color-interpolation-filters="sRGB">
<feFlood flood-opacity="0" result="BackgroundImageFix"/>
<feColorMatrix in="SourceAlpha" type="matrix" values="0 0 0 0 0 0 0 0 0 0 0 0 0 0 0 0 0 0 127 0" result="hardAlpha"/>
<feOffset dy="4"/>
<feGaussianBlur stdDeviation="2"/>
<feComposite in2="hardAlpha" operator="out"/>
<feColorMatrix type="matrix" values="0 0 0 0 0 0 0 0 0 0 0 0 0 0 0 0 0 0 0.25 0"/>
<feBlend mode="normal" in2="BackgroundImageFix" result="effect1_dropShadow_202_3"/>
<feBlend mode="normal" in="SourceGraphic" in2="effect1_dropShadow_202_3" result="shape"/>
</filter>
<filter id="filter3_d_202_3" x="530" y="14" width="304" height="303.97" filterUnits="userSpaceOnUse" color-interpolation-filters="sRGB">
<feFlood flood-opacity="0" result="BackgroundImageFix"/>
<feColorMatrix in="SourceAlpha" type="matrix" values="0 0 0 0 0 0 0 0 0 0 0 0 0 0 0 0 0 0 127 0" result="hardAlpha"/>
<feOffset dy="4"/>
<feGaussianBlur stdDeviation="2"/>
<feComposite in2="hardAlpha" operator="out"/>
<feColorMatrix type="matrix" values="0 0 0 0 0 0 0 0 0 0 0 0 0 0 0 0 0 0 0.25 0"/>
<feBlend mode="normal" in2="BackgroundImageFix" result="effect1_dropShadow_202_3"/>
<feBlend mode="normal" in="SourceGraphic" in2="effect1_dropShadow_202_3" result="shape"/>
</filter>
<filter id="filter4_d_202_3" x="530" y="390.97" width="304" height="303.97" filterUnits="userSpaceOnUse" color-interpolation-filters="sRGB">
<feFlood flood-opacity="0" result="BackgroundImageFix"/>
<feColorMatrix in="SourceAlpha" type="matrix" values="0 0 0 0 0 0 0 0 0 0 0 0 0 0 0 0 0 0 127 0" result="hardAlpha"/>
<feOffset dy="4"/>
<feGaussianBlur stdDeviation="2"/>
<feComposite in2="hardAlpha" operator="out"/>
<feColorMatrix type="matrix" values="0 0 0 0 0 0 0 0 0 0 0 0 0 0 0 0 0 0 0.25 0"/>
<feBlend mode="normal" in2="BackgroundImageFix" result="effect1_dropShadow_202_3"/>
<feBlend mode="normal" in="SourceGraphic" in2="effect1_dropShadow_202_3" result="shape"/>
</filter>
<filter id="filter5_d_202_3" x="134" y="391" width="304" height="303.97" filterUnits="userSpaceOnUse" color-interpolation-filters="sRGB">
<feFlood flood-opacity="0" result="BackgroundImageFix"/>
<feColorMatrix in="SourceAlpha" type="matrix" values="0 0 0 0 0 0 0 0 0 0 0 0 0 0 0 0 0 0 127 0" result="hardAlpha"/>
<feOffset dy="4"/>
<feGaussianBlur stdDeviation="2"/>
<feComposite in2="hardAlpha" operator="out"/>
<feColorMatrix type="matrix" values="0 0 0 0 0 0 0 0 0 0 0 0 0 0 0 0 0 0 0.25 0"/>
<feBlend mode="normal" in2="BackgroundImageFix" result="effect1_dropShadow_202_3"/>
<feBlend mode="normal" in="SourceGraphic" in2="effect1_dropShadow_202_3" result="shape"/>
</filter>
<clipPath id="clip0_202_3">
<rect width="200" height="199.97" fill="white" transform="translate(978 439)"/>
</clipPath>
<clipPath id="clip1_202_3">
<rect width="200" height="199.97" fill="white" transform="translate(582 815.94)"/>
</clipPath>
<clipPath id="clip2_202_3">
<rect width="200" height="199.97" fill="white" transform="translate(582 62)"/>
</clipPath>
<clipPath id="clip3_202_3">
<rect width="200" height="199.97" fill="white" transform="translate(582 438.97)"/>
</clipPath>
<clipPath id="clip4_202_3">
<rect width="200" height="199.97" fill="white" transform="translate(186 439)"/>
</clipPath>
</defs>
</svg>
